<svg width="16" height="16" viewBox="0 0 16 16" fill="none" xmlns="http://www.w3.org/2000/svg">
<path d="M8.4543 1.81787C9.84954 1.81787 11.1486 2.36313 12.1429 3.34141C13.1211 4.31968 13.6664 5.65077 13.6664 7.01394C13.6664 7.41487 13.9872 7.73562 14.3881 7.73562C14.789 7.73562 15.1098 7.41487 15.1098 7.01394C15.1258 5.26588 14.4202 3.54989 13.1693 2.29898C11.9023 1.08015 10.2344 0.374512 8.4543 0.374512C8.05337 0.374512 7.73262 0.695257 7.73262 1.09619C7.73262 1.49712 8.05337 1.81787 8.4543 1.81787Z" fill="url(#paint0_linear)"/>
<path d="M8.4543 4.59252C9.11183 4.59252 9.72124 4.84912 10.1863 5.3142C10.6514 5.77928 10.908 6.3887 10.908 7.04623C10.908 7.44716 11.2287 7.7679 11.6297 7.7679C12.0306 7.7679 12.3514 7.44716 12.3514 7.04623C12.3514 6.0038 11.9504 5.02553 11.2127 4.28782C10.475 3.5501 9.49672 3.14917 8.4543 3.14917C8.05337 3.14917 7.73262 3.46992 7.73262 3.87085C7.73262 4.27178 8.05337 4.59252 8.4543 4.59252Z" fill="url(#paint1_linear)"/>
<path d="M14.6608 11.3281L11.5495 9.72441C11.1165 9.49988 10.5712 9.61214 10.2665 9.99704L9.12789 11.4564C8.02132 10.8631 7.17135 10.2857 6.19307 9.30744C5.15065 8.26501 4.58935 7.399 4.01201 6.3245L5.45536 5.2019C5.84025 4.89719 5.96855 4.35192 5.72799 3.91891L4.1403 0.823721C3.85163 0.278454 3.16203 0.102044 2.66488 0.438827L0.676255 1.75388C0.227211 2.05859 -0.0293849 2.58782 0.00268961 3.13309C0.0347641 3.69439 0.11495 4.40003 0.243249 4.89719C0.82059 7.11033 2.1998 9.40366 4.1403 11.3442C6.08081 13.3007 8.37414 14.6799 10.5873 15.2573C11.0844 15.3856 11.7901 15.4497 12.3674 15.4978C12.9287 15.5299 13.458 15.2573 13.7627 14.7922L15.0456 12.7875C15.3824 12.2743 15.19 11.6008 14.6608 11.3281Z" fill="url(#paint2_linear)"/>
<defs>
<linearGradient id="paint0_linear" x1="14.3723" y1="7.73562" x2="8.79995" y2="7.29046" gradientUnits="userSpaceOnUse">
<stop stop-color="#CFA36A"/>
<stop offset="1" stop-color="#E5BE8C"/>
</linearGradient>
<linearGradient id="paint1_linear" x1="11.8895" y1="7.7679" x2="8.40074" y2="7.48982" gradientUnits="userSpaceOnUse">
<stop stop-color="#CFA36A"/>
<stop offset="1" stop-color="#E5BE8C"/>
</linearGradient>
<linearGradient id="paint2_linear" x1="13.6919" y1="15.5004" x2="2.20047" y2="14.5856" gradientUnits="userSpaceOnUse">
<stop stop-color="#CFA36A"/>
<stop offset="1" stop-color="#E5BE8C"/>
</linearGradient>
</defs>
</svg>
